<svg id="svg" version="1.1" xmlns="http://www.w3.org/2000/svg" style="display: block;" viewBox="0 0 500 500"><path d="M0 0 C165 0 330 0 500 0 C500 165 500 330 500 500 C335 500 170 500 0 500 C0 335 0 170 0 0 Z " transform="translate(0,0)" style="fill: #FEFDFD;"/><path d="M0 0 C5.03534082 2.65814129 7.99024814 5.89729591 10.3203125 11.0234375 C14.4219471 28.79718742 3.79889565 45.5457229 -5.2421875 60.0234375 C-7.66904031 63.87700252 -10.12552682 67.67975585 -12.9296875 71.2734375 C-12.13304687 71.37140625 -11.33640625 71.469375 -10.515625 71.5703125 C-4.31983628 72.44465738 0.29219031 73.12401559 5.0703125 77.2734375 C8.31965797 82.1474557 7.68272744 88.02130297 6.6171875 93.6796875 C6.25676285 95.14198179 5.89099955 96.60297206 5.51953125 98.0625 C4.76855174 101.75862524 4.71018679 105.5214301 5.0703125 109.2734375 C6.0995591 110.49517234 6.0995591 110.49517234 8.2578125 110.6484375 C12.27153362 110.11327468 14.52348507 108.27049564 17.0703125 105.2734375 C22.59199118 96.34542747 25.22462597 86.4085151 27.2578125 76.2109375 C27.43505859 75.34533203 27.61230469 74.47972656 27.79492188 73.58789062 C28.22498363 71.484075 28.64836418 69.37889538 29.0703125 67.2734375 C30.0603125 67.2734375 31.0503125 67.2734375 32.0703125 67.2734375 C32.0703125 68.5934375 32.0703125 69.9134375 32.0703125 71.2734375 C32.63919189 71.26328613 33.20807129 71.25313477 33.79418945 71.24267578 C40.98340597 71.17252312 48.09196918 71.59816644 55.2578125 72.1484375 C56.39412109 72.22707031 57.53042969 72.30570312 58.70117188 72.38671875 C64.4178073 72.82004971 69.64065471 73.40330935 75.0703125 75.2734375 C75.0703125 75.6034375 75.0703125 75.9334375 75.0703125 76.2734375 C73.5495858 76.30097581 72.02870576 76.32007125 70.5078125 76.3359375 C69.66089844 76.34753906 68.81398438 76.35914063 67.94140625 76.37109375 C65.0703125 76.2734375 65.0703125 76.2734375 61.82421875 75.80078125 C57.40310375 75.1797089 53.02711672 74.96353815 48.5703125 74.7734375 C43.00357315 74.53599364 37.5741129 74.16114724 32.0703125 73.2734375 C32.0703125 73.9334375 32.0703125 74.5934375 32.0703125 75.2734375 C33.09278076 75.31831299 34.11524902 75.36318848 35.16870117 75.40942383 C39.02544446 75.58191484 42.88128407 75.77032715 46.73706055 75.96313477 C48.39408657 76.04385962 50.05131862 76.12047901 51.70874023 76.19262695 C61.8368953 76.63670995 71.26612936 77.51282345 81.0703125 80.2734375 C80.7403125 80.9334375 80.4103125 81.5934375 80.0703125 82.2734375 C82.3803125 83.2634375 84.6903125 84.2534375 87.0703125 85.2734375 C87.0703125 85.9334375 87.0703125 86.5934375 87.0703125 87.2734375 C86.4103125 87.6034375 85.7503125 87.9334375 85.0703125 88.2734375 C86.7203125 88.9334375 88.3703125 89.5934375 90.0703125 90.2734375 C89.0703125 92.2734375 89.0703125 92.2734375 88.0703125 93.2734375 C89.0603125 94.5934375 90.0503125 95.9134375 91.0703125 97.2734375 C90.4103125 97.2734375 89.7503125 97.2734375 89.0703125 97.2734375 C89.0703125 97.9334375 89.0703125 98.5934375 89.0703125 99.2734375 C80.88390226 99.49566505 72.99607303 98.82858913 64.8828125 97.7734375 C63.74005859 97.63035156 62.59730469 97.48726563 61.41992188 97.33984375 C58.63589931 96.99038485 55.85280725 96.63482542 53.0703125 96.2734375 C53.0703125 96.9334375 53.0703125 97.5934375 53.0703125 98.2734375 C52.0803125 98.7684375 52.0803125 98.7684375 51.0703125 99.2734375 C51.96234375 99.38300781 52.854375 99.49257813 53.7734375 99.60546875 C55.52914062 99.84330078 55.52914062 99.84330078 57.3203125 100.0859375 C59.06054688 100.31216797 59.06054688 100.31216797 60.8359375 100.54296875 C64.07859609 101.27530831 65.75889068 101.91052361 68.0703125 104.2734375 C68.0703125 105.2634375 68.0703125 106.2534375 68.0703125 107.2734375 C68.7303125 107.6034375 69.3903125 107.9334375 70.0703125 108.2734375 C70.0703125 109.5934375 70.0703125 110.9134375 70.0703125 112.2734375 C67.11879701 113.74919525 64.05725361 113.61211758 60.8125 113.7734375 C60.05882141 113.8136351 59.30514282 113.8538327 58.52862549 113.89524841 C56.00111439 114.02711786 53.47328607 114.15077137 50.9453125 114.2734375 C49.62729645 114.33979904 49.62729645 114.33979904 48.28265381 114.40750122 C33.58857628 115.14047444 18.90468857 115.48256475 4.1953125 115.7109375 C-11.33026319 115.95294718 -26.76000034 116.57993168 -42.2421875 117.7734375 C-43.12212372 117.84099243 -44.00205994 117.90854736 -44.90866089 117.97814941 C-48.30825349 118.23971415 -51.70779118 118.50198246 -55.10725403 118.76522827 C-66.37433567 119.6278828 -77.63155337 120.0947835 -88.9296875 120.2734375 C-89.75368042 120.2867511 -90.57767334 120.3000647 -91.42663574 120.31378174 C-97.21501067 120.40350687 -103.00306995 120.46564893 -108.79202271 120.50259399 C-110.7439444 120.51638471 -112.69583993 120.53468617 -114.64767456 120.55770874 C-117.39418557 120.58760157 -120.14006289 120.59723334 -122.88671875 120.6015625 C-124.12245132 120.61999962 -124.12245132 120.61999962 -125.38314819 120.6388092 C-130.25969382 120.62025889 -133.77762448 120.12535957 -137.9296875 117.2734375 C-138.8046875 113.5859375 -138.8046875 113.5859375 -138.9296875 110.2734375 C-134.4746875 109.2834375 -134.4746875 109.2834375 -129.9296875 108.2734375 C-129.4346875 106.2934375 -129.4346875 106.2934375 -128.9296875 104.2734375 C-130.0434375 104.180625 -130.0434375 104.180625 -131.1796875 104.0859375 C-134.7482614 103.03158612 -135.85213978 101.27433977 -137.9296875 98.2734375 C-137.5996875 97.9434375 -137.2696875 97.6134375 -136.9296875 97.2734375 C-137.50153778 97.26535065 -138.07338806 97.25726379 -138.66256714 97.24893188 C-144.59965749 97.16305802 -150.53640731 97.06356277 -156.47314453 96.95605469 C-158.6905344 96.91770616 -160.90798774 96.88286379 -163.12548828 96.8515625 C-166.30784839 96.80603924 -169.48976932 96.74802431 -172.671875 96.6875 C-173.66774628 96.67594879 -174.66361755 96.66439758 -175.68966675 96.65249634 C-176.61047028 96.63262665 -177.5312738 96.61275696 -178.47998047 96.59228516 C-179.2927243 96.57896149 -180.10546814 96.56563782 -180.94284058 96.5519104 C-182.9296875 96.2734375 -182.9296875 96.2734375 -184.9296875 94.2734375 C-184.9296875 93.2834375 -184.9296875 92.2934375 -184.9296875 91.2734375 C-185.5896875 91.2734375 -186.2496875 91.2734375 -186.9296875 91.2734375 C-186.9296875 90.6134375 -186.9296875 89.9534375 -186.9296875 89.2734375 C-183.66865884 88.29946464 -180.73146879 88.15226232 -177.33496094 88.15991211 C-176.21410095 88.15998764 -175.09324097 88.16006317 -173.93841553 88.16014099 C-172.73412903 88.16530228 -171.52984253 88.17046356 -170.2890625 88.17578125 C-168.43308441 88.17790367 -168.43308441 88.17790367 -166.53961182 88.18006897 C-163.25823809 88.1847164 -159.97691377 88.19369403 -156.69555664 88.20477295 C-153.34391739 88.2150223 -149.99227602 88.21948891 -146.640625 88.22460938 C-140.07029319 88.23563725 -133.49999439 88.25237454 -126.9296875 88.2734375 C-127.02306809 81.56951371 -127.13049497 74.86591369 -127.24707031 68.16235352 C-127.28503261 65.88831509 -127.3199384 63.61422328 -127.3515625 61.34008789 C-126.35401802 35.66276004 -126.35401802 35.66276004 -135.34765625 12.625 C-140.69149235 7.87187072 -146.08277145 6.74362919 -153.01953125 6.90234375 C-160.80830609 7.89554323 -166.62751736 12.06696148 -171.4609375 18.0859375 C-177.67796004 27.34533277 -178.60694168 36.30433856 -177.9296875 47.2734375 C-177.28420652 50.4771115 -176.27474699 53.30166077 -174.9296875 56.2734375 C-174.62804687 56.97082031 -174.32640625 57.66820312 -174.015625 58.38671875 C-170.73979036 65.45772766 -166.52243287 70.71109523 -159.546875 74.36328125 C-154.80536966 76.01219281 -149.86874223 76.00543469 -144.9296875 75.2734375 C-144.2696875 74.6134375 -143.6096875 73.9534375 -142.9296875 73.2734375 C-141.9396875 73.6034375 -140.9496875 73.9334375 -139.9296875 74.2734375 C-142.50536973 77.0944228 -144.44539869 78.10310928 -148.3125 78.546875 C-155.56373956 78.81543943 -160.00649157 77.40282003 -165.9296875 73.2734375 C-166.7959375 72.7165625 -167.6621875 72.1596875 -168.5546875 71.5859375 C-177.73062941 62.65146774 -182.25344072 51.91587382 -182.4296875 39.1484375 C-182.25162711 28.16030531 -178.84679132 21.36560931 -171.30078125 13.47265625 C-163.48058709 6.21932954 -155.72619754 3.83855678 -145.12109375 4.01953125 C-136.95278302 4.66939685 -130.22681459 8.56228072 -124.7421875 14.5859375 C-119.15918373 21.49545131 -118.13195244 28.65956278 -116.9296875 37.2734375 C-116.69894531 36.23445313 -116.46820313 35.19546875 -116.23046875 34.125 C-113.64693718 22.90004725 -110.89066785 11.31224589 -100.9296875 4.2734375 C-96.63117713 2.84060071 -94.86657948 2.85091759 -90.7421875 4.7109375 C-81.55636305 13.08024422 -80.50160605 27.64124022 -78.9296875 39.2734375 C-78.71054688 38.25765625 -78.49140625 37.241875 -78.265625 36.1953125 C-75.53225163 24.09648443 -72.4917773 12.78877063 -61.9296875 5.2734375 C-56.20765533 2.41242142 -47.44492 3.47585528 -41.48046875 5.3671875 C-34.01900137 8.88727751 -28.76343791 12.57927383 -25.72265625 20.36328125 C-23.12071532 28.38976333 -21.86668373 36.08484871 -21.61328125 44.51953125 C-21.59250015 45.17550797 -21.57171906 45.83148468 -21.55030823 46.50733948 C-21.48562812 48.57511296 -21.42631284 50.64299851 -21.3671875 52.7109375 C-21.32392443 54.12435992 -21.28030785 55.53777157 -21.23632812 56.95117188 C-21.13003234 60.39181221 -21.02854278 63.83257442 -20.9296875 67.2734375 C-14.67949482 57.86870398 -8.70852995 48.42879954 -3.8671875 38.2109375 C-3.51019775 37.46352295 -3.15320801 36.7161084 -2.78540039 35.94604492 C1.2345588 27.20956548 4.66903765 18.002822 3.0703125 8.2734375 C1.75725683 5.24465576 0.78429697 4.40997847 -1.9296875 2.2734375 C-5.41023001 1.577329 -7.56118081 1.46519194 -10.67578125 3.3046875 C-13.39769565 5.44566573 -14.82644475 6.96370926 -15.9296875 10.2734375 C-16.07601154 14.80948265 -16.03605295 18.84797571 -14.9296875 23.2734375 C-18.8046875 21.5234375 -18.8046875 21.5234375 -19.9296875 19.2734375 C-20.58305797 14.16781394 -20.71574392 9.69839645 -17.7421875 5.3359375 C-12.97816341 -0.30637037 -7.19401497 -2.7086777 0 0 Z " transform="translate(306.9296875,164.7265625)" style="fill: #FBDCC5;"/><path d="M0 0 C5.03534082 2.65814129 7.99024814 5.89729591 10.3203125 11.0234375 C14.4219471 28.79718742 3.79889565 45.5457229 -5.2421875 60.0234375 C-7.66904031 63.87700252 -10.12552682 67.67975585 -12.9296875 71.2734375 C-12.13304687 71.37140625 -11.33640625 71.469375 -10.515625 71.5703125 C-4.31983628 72.44465738 0.29219031 73.12401559 5.0703125 77.2734375 C8.31965797 82.1474557 7.68272744 88.02130297 6.6171875 93.6796875 C6.25676285 95.14198179 5.89099955 96.60297206 5.51953125 98.0625 C4.76855174 101.75862524 4.71018679 105.5214301 5.0703125 109.2734375 C6.0995591 110.49517234 6.0995591 110.49517234 8.2578125 110.6484375 C12.27153362 110.11327468 14.52348507 108.27049564 17.0703125 105.2734375 C22.763051 96.06884061 25.24324837 86.21235448 27.06884766 75.68115234 C27.97754447 70.45897356 27.97754447 70.45897356 29.0703125 68.2734375 C29.7303125 68.2734375 30.3903125 68.2734375 31.0703125 68.2734375 C32.13534959 80.84679199 28.18797128 97.1992998 20.1953125 107.2109375 C16.42292654 111.2196885 12.93569235 113.01614373 7.4453125 113.7734375 C4.0703125 113.2734375 4.0703125 113.2734375 1.8671875 111.4609375 C-0.84438835 106.65083774 -0.2776976 102.18650081 -0.0546875 96.7734375 C0.01447403 94.72164555 0.07468455 92.66952808 0.125 90.6171875 C0.16093262 89.71162109 0.19686523 88.80605469 0.23388672 87.87304688 C-0.00579285 84.06393035 -1.01112287 81.26004396 -3.6171875 78.4609375 C-7.58590796 76.42294591 -11.14532119 76.77904301 -15.3828125 77.953125 C-17.58561107 78.68046415 -19.76207368 79.44767986 -21.9296875 80.2734375 C-21.91808594 81.0984375 -21.90648437 81.9234375 -21.89453125 82.7734375 C-21.84168416 89.53786454 -21.94185425 96.26903845 -22.3046875 103.0234375 C-22.3509729 104.05984375 -22.3509729 104.05984375 -22.39819336 105.1171875 C-22.69404488 110.03779488 -22.69404488 110.03779488 -24.9296875 112.2734375 C-30.26302083 112.60677083 -30.26302083 112.60677083 -32.9296875 111.2734375 C-33.2596875 105.6634375 -33.5896875 100.0534375 -33.9296875 94.2734375 C-35.4765625 96.8103125 -35.4765625 96.8103125 -37.0546875 99.3984375 C-44.27992666 110.62000133 -44.27992666 110.62000133 -48.94140625 111.76953125 C-52.22286651 111.96969426 -54.48425774 111.56236491 -57.2421875 109.7734375 C-62.06313221 102.63129718 -62.44524176 95.77775478 -62.3671875 87.3984375 C-62.36017822 85.74122681 -62.36017822 85.74122681 -62.35302734 84.05053711 C-62.2065005 75.83609944 -60.96969521 68.41480866 -58.953125 60.48828125 C-54.88839909 44.40336861 -54.93358849 26.71827874 -55.9296875 10.2734375 C-57.02719106 8.98619728 -57.02719106 8.98619728 -59.6796875 8.7734375 C-63.1391288 8.97775567 -63.1391288 8.97775567 -65.4921875 11.8359375 C-75.45633335 27.86799268 -77.00809996 50.05787704 -78.97900391 68.31201172 C-79.09034668 69.33439941 -79.20168945 70.35678711 -79.31640625 71.41015625 C-79.45888794 72.78240356 -79.45888794 72.78240356 -79.60424805 74.18237305 C-79.9296875 76.2734375 -79.9296875 76.2734375 -80.9296875 77.2734375 C-82.7421875 77.40625 -82.7421875 77.40625 -84.9296875 77.3984375 C-85.6515625 77.40101563 -86.3734375 77.40359375 -87.1171875 77.40625 C-88.9296875 77.2734375 -88.9296875 77.2734375 -89.9296875 76.2734375 C-90.04200253 74.72678842 -90.08644024 73.17514215 -90.10327148 71.62451172 C-90.11676132 70.63192352 -90.13025116 69.63933533 -90.14414978 68.6166687 C-90.15980736 66.98883957 -90.15980736 66.98883957 -90.17578125 65.328125 C-90.20877221 63.02994486 -90.24198281 60.73176787 -90.27539062 58.43359375 C-90.3224291 54.81138733 -90.36674027 51.18918842 -90.40649414 47.56689453 C-89.45535599 26.97486168 -89.45535599 26.97486168 -93.9296875 7.2734375 C-96.71808054 6.77078058 -96.71808054 6.77078058 -99.9296875 7.2734375 C-108.05026971 14.60176779 -111.67098482 27.07182874 -112.9921875 37.5859375 C-113.82442434 44.16817434 -113.82442434 44.16817434 -114.9296875 45.2734375 C-115.15066062 47.754206 -115.31025813 50.21288698 -115.4296875 52.69921875 C-115.49011986 53.84994873 -115.49011986 53.84994873 -115.55177307 55.02392578 C-115.68254845 57.54437579 -115.8062103 60.06512027 -115.9296875 62.5859375 C-116.01793016 64.31210424 -116.10639148 66.03825981 -116.19506836 67.7644043 C-116.79145478 79.55746478 -117.27141239 91.35136383 -117.58789062 103.15551758 C-117.61947266 104.22181396 -117.65105469 105.28811035 -117.68359375 106.38671875 C-117.71948608 107.77564331 -117.71948608 107.77564331 -117.75610352 109.19262695 C-117.9296875 111.2734375 -117.9296875 111.2734375 -118.9296875 112.2734375 C-120.7421875 112.40625 -120.7421875 112.40625 -122.9296875 112.3984375 C-123.6515625 112.40101563 -124.3734375 112.40359375 -125.1171875 112.40625 C-126.9296875 112.2734375 -126.9296875 112.2734375 -127.9296875 111.2734375 C-128.01349486 109.11326961 -128.02596048 106.95031869 -128.01147461 104.78857422 C-128.00840805 104.1102655 -128.00534149 103.43195679 -128.00218201 102.73309326 C-127.99500627 101.25274367 -127.98560571 99.77240364 -127.97428703 98.29207993 C-127.95690143 95.93552774 -127.94659524 93.57904352 -127.93836975 91.22244263 C-127.91394046 84.51883484 -127.87889757 77.81531636 -127.83374023 71.11181641 C-127.80663051 67.01280456 -127.78979623 62.91384745 -127.77887154 58.81476212 C-127.77273878 57.26413097 -127.76283374 55.71350924 -127.74879265 54.16292953 C-127.01849948 32.11343848 -127.01849948 32.11343848 -135.34765625 12.625 C-140.69149235 7.87187072 -146.08277145 6.74362919 -153.01953125 6.90234375 C-160.80830609 7.89554323 -166.62751736 12.06696148 -171.4609375 18.0859375 C-177.67796004 27.34533277 -178.60694168 36.30433856 -177.9296875 47.2734375 C-177.28420652 50.4771115 -176.27474699 53.30166077 -174.9296875 56.2734375 C-174.62804687 56.97082031 -174.32640625 57.66820312 -174.015625 58.38671875 C-170.73979036 65.45772766 -166.52243287 70.71109523 -159.546875 74.36328125 C-154.80536966 76.01219281 -149.86874223 76.00543469 -144.9296875 75.2734375 C-144.2696875 74.6134375 -143.6096875 73.9534375 -142.9296875 73.2734375 C-141.9396875 73.6034375 -140.9496875 73.9334375 -139.9296875 74.2734375 C-142.50536973 77.0944228 -144.44539869 78.10310928 -148.3125 78.546875 C-155.56373956 78.81543943 -160.00649157 77.40282003 -165.9296875 73.2734375 C-166.7959375 72.7165625 -167.6621875 72.1596875 -168.5546875 71.5859375 C-177.73062941 62.65146774 -182.25344072 51.91587382 -182.4296875 39.1484375 C-182.25162711 28.16030531 -178.84679132 21.36560931 -171.30078125 13.47265625 C-163.48058709 6.21932954 -155.72619754 3.83855678 -145.12109375 4.01953125 C-136.95278302 4.66939685 -130.22681459 8.56228072 -124.7421875 14.5859375 C-119.15918373 21.49545131 -118.13195244 28.65956278 -116.9296875 37.2734375 C-116.69894531 36.23445313 -116.46820313 35.19546875 -116.23046875 34.125 C-113.64693718 22.90004725 -110.89066785 11.31224589 -100.9296875 4.2734375 C-96.63117713 2.84060071 -94.86657948 2.85091759 -90.7421875 4.7109375 C-81.55636305 13.08024422 -80.50160605 27.64124022 -78.9296875 39.2734375 C-78.71054688 38.25765625 -78.49140625 37.241875 -78.265625 36.1953125 C-75.53225163 24.09648443 -72.4917773 12.78877063 -61.9296875 5.2734375 C-56.20765533 2.41242142 -47.44492 3.47585528 -41.48046875 5.3671875 C-34.01900137 8.88727751 -28.76343791 12.57927383 -25.72265625 20.36328125 C-23.12071532 28.38976333 -21.86668373 36.08484871 -21.61328125 44.51953125 C-21.59250015 45.17550797 -21.57171906 45.83148468 -21.55030823 46.50733948 C-21.48562812 48.57511296 -21.42631284 50.64299851 -21.3671875 52.7109375 C-21.32392443 54.12435992 -21.28030785 55.53777157 -21.23632812 56.95117188 C-21.13003234 60.39181221 -21.02854278 63.83257442 -20.9296875 67.2734375 C-14.67949482 57.86870398 -8.70852995 48.42879954 -3.8671875 38.2109375 C-3.51019775 37.46352295 -3.15320801 36.7161084 -2.78540039 35.94604492 C1.2345588 27.20956548 4.66903765 18.002822 3.0703125 8.2734375 C1.75725683 5.24465576 0.78429697 4.40997847 -1.9296875 2.2734375 C-5.41023001 1.577329 -7.56118081 1.46519194 -10.67578125 3.3046875 C-13.39769565 5.44566573 -14.82644475 6.96370926 -15.9296875 10.2734375 C-16.07601154 14.80948265 -16.03605295 18.84797571 -14.9296875 23.2734375 C-18.8046875 21.5234375 -18.8046875 21.5234375 -19.9296875 19.2734375 C-20.58305797 14.16781394 -20.71574392 9.69839645 -17.7421875 5.3359375 C-12.97816341 -0.30637037 -7.19401497 -2.7086777 0 0 Z " transform="translate(306.9296875,164.7265625)" style="fill: #5B4333;"/><path d="M0 0 C5.53501236 3.23724649 8.99823363 7.82211938 11.00708008 13.92138672 C14.53943713 27.94753778 13.86009869 42.47162657 13.75 56.8125 C13.7399467 59.10481378 13.73082502 61.39713185 13.72265625 63.68945312 C13.70083695 69.25139708 13.66754687 74.81317797 13.625 80.375 C11.52051062 80.23390014 9.4164123 80.08695825 7.3125 79.9375 C5.55486328 79.81568359 5.55486328 79.81568359 3.76171875 79.69140625 C0.625 79.375 0.625 79.375 -2.375 78.375 C-3.71265145 78.26728308 -5.05471395 78.20934717 -6.39648438 78.18554688 C-7.20162476 78.16882935 -8.00676514 78.15211182 -8.83630371 78.1348877 C-9.70501099 78.12131226 -10.57371826 78.10773682 -11.46875 78.09375 C-12.37065063 78.07534058 -13.27255127 78.05693115 -14.20178223 78.03796387 C-17.09278837 77.97921828 -19.98385612 77.92649008 -22.875 77.875 C-52.089442 77.3469687 -52.089442 77.3469687 -59.375 75.375 C-59.375 74.715 -59.375 74.055 -59.375 73.375 C-66.34981116 72.69334306 -73.0942643 72.28825751 -80.09765625 72.73046875 C-82.375 72.375 -82.375 72.375 -84.18359375 70.36328125 C-84.57675781 69.70714844 -84.96992187 69.05101562 -85.375 68.375 C-80.20930559 66.58282031 -76.86446087 66.25470186 -71.375 67.375 C-71.705 66.776875 -72.035 66.17875 -72.375 65.5625 C-73.375 63.375 -73.375 63.375 -73.375 60.375 C-72.385 60.375 -71.395 60.375 -70.375 60.375 C-70.375 59.385 -70.375 58.395 -70.375 57.375 C-66.91 56.88 -66.91 56.88 -63.375 56.375 C-63.705 55.385 -64.035 54.395 -64.375 53.375 C-62.395 52.88 -62.395 52.88 -60.375 52.375 C-60.375 51.715 -60.375 51.055 -60.375 50.375 C-57.27414429 48.30776286 -56.64568319 48.13002577 -53.14453125 48.1796875 C-52.34208984 48.18613281 -51.53964844 48.19257813 -50.71289062 48.19921875 C-49.87951172 48.21597656 -49.04613281 48.23273438 -48.1875 48.25 C-46.9200293 48.26353516 -46.9200293 48.26353516 -45.62695312 48.27734375 C-43.54284757 48.30089297 -41.45888783 48.33676353 -39.375 48.375 C-39.87 45.405 -39.87 45.405 -40.375 42.375 C-38.72277254 44.85334119 -37.67875575 46.90798599 -36.5625 49.625 C-32.62971934 58.46303073 -27.73497309 63.35901615 -19.375 68.375 C-13.7960036 70.23466547 -7.52943645 70.38885245 -2.1875 67.875 C-1.589375 67.38 -0.99125 66.885 -0.375 66.375 C-0.91769531 66.69597656 -1.46039063 67.01695312 -2.01953125 67.34765625 C-7.21742381 69.61473045 -13.52458078 69.25102588 -18.87890625 67.60546875 C-27.87698452 63.17684936 -33.34345824 54.7981688 -36.68359375 45.6015625 C-39.99282326 34.94472172 -39.22860627 24.41926854 -34.375 14.375 C-30.83426409 7.79934759 -25.45075958 3.17402919 -19.0625 -0.5625 C-12.62785402 -2.41655054 -6.21377904 -2.80735953 0 0 Z " transform="translate(166.375,172.625)" style="fill: #FCDDC5;"/><path d="M0 0 C2.93896818 1.85282776 4.62308266 2.9562289 5.8125 6.25 C5.874375 6.8275 5.93625 7.405 6 8 C4.68 8.33 3.36 8.66 2 9 C2 12.63 2 16.26 2 20 C1.67 20 1.34 20 1 20 C0.86722656 18.94039062 0.73445313 17.88078125 0.59765625 16.7890625 C0.41946125 15.40101721 0.2410654 14.01299769 0.0625 12.625 C-0.02451172 11.92632812 -0.11152344 11.22765625 -0.20117188 10.5078125 C-0.66318128 6.63216425 -0.66318128 6.63216425 -2 3 C-4.78839304 2.49734308 -4.78839304 2.49734308 -8 3 C-16.12058221 10.32833029 -19.74129732 22.79839124 -21.0625 33.3125 C-21.89473684 39.89473684 -21.89473684 39.89473684 -23 41 C-23.22097312 43.4807685 -23.38057063 45.93944948 -23.5 48.42578125 C-23.56043236 49.57651123 -23.56043236 49.57651123 -23.62208557 50.75048828 C-23.75286095 53.27093829 -23.8765228 55.79168277 -24 58.3125 C-24.08824266 60.03866674 -24.17670398 61.76482231 -24.26538086 63.4909668 C-24.86176728 75.28402728 -25.34172489 87.07792633 -25.65820312 98.88208008 C-25.68978516 99.94837646 -25.72136719 101.01467285 -25.75390625 102.11328125 C-25.78979858 103.50220581 -25.78979858 103.50220581 -25.82641602 104.91918945 C-26 107 -26 107 -27 108 C-28.8125 108.1328125 -28.8125 108.1328125 -31 108.125 C-31.721875 108.12757813 -32.44375 108.13015625 -33.1875 108.1328125 C-35 108 -35 108 -36 107 C-36.08380736 104.83983211 -36.09627298 102.67688119 -36.08178711 100.51513672 C-36.07872055 99.836828 -36.07565399 99.15851929 -36.07249451 98.45965576 C-36.06531877 96.97930617 -36.05591821 95.49896614 -36.04459953 94.01864243 C-36.02721393 91.66209024 -36.01690774 89.30560602 -36.00868225 86.94900513 C-35.98425296 80.24539734 -35.94921007 73.54187886 -35.90405273 66.83837891 C-35.87694301 62.73936706 -35.86010873 58.64040995 -35.84918404 54.54132462 C-35.84305128 52.99069347 -35.83314624 51.44007174 -35.81910515 49.88949203 C-35.08881198 27.84000098 -35.08881198 27.84000098 -43.41796875 8.3515625 C-48.76180485 3.59843322 -54.15308395 2.47019169 -61.08984375 2.62890625 C-68.87861859 3.62210573 -74.69782986 7.79352398 -79.53125 13.8125 C-85.74827254 23.07189527 -86.67725418 32.03090106 -86 43 C-85.35451902 46.203674 -84.34505949 49.02822327 -83 52 C-82.69835937 52.69738281 -82.39671875 53.39476562 -82.0859375 54.11328125 C-78.81010286 61.18429016 -74.59274537 66.43765773 -67.6171875 70.08984375 C-62.87568216 71.73875531 -57.93905473 71.73199719 -53 71 C-52.34 70.34 -51.68 69.68 -51 69 C-50.01 69.33 -49.02 69.66 -48 70 C-50.57568223 72.8209853 -52.51571119 73.82967178 -56.3828125 74.2734375 C-63.63405206 74.54200193 -68.07680407 73.12938253 -74 69 C-74.86625 68.443125 -75.7325 67.88625 -76.625 67.3125 C-85.80094191 58.37803024 -90.32375322 47.64243632 -90.5 34.875 C-90.32193961 23.88686781 -86.91710382 17.09217181 -79.37109375 9.19921875 C-71.55089959 1.94589204 -63.79651004 -0.43488072 -53.19140625 -0.25390625 C-45.02309552 0.39595935 -38.29712709 4.28884322 -32.8125 10.3125 C-27.22949623 17.22201381 -26.20226494 24.38612528 -25 33 C-24.65388672 31.44152344 -24.65388672 31.44152344 -24.30078125 29.8515625 C-21.59716972 18.10488515 -18.66034411 7.95700888 -9 0 C-5.81229009 -1.59385496 -3.40972958 -0.75129635 0 0 Z " transform="translate(215,169)" style="fill: #5B4333;"/><path d="M0 0 C5.55969105 2.25035114 9.01901631 4.85273285 12 10 C16.34781177 22.60177974 16.7754379 35.49149165 16.79614258 48.7109375 C16.81248662 51.99730995 16.89836837 55.27736247 16.98632812 58.5625 C17.19188486 74.53307027 13.94593523 86.97500633 3 99 C-0.25 99.8125 -0.25 99.8125 -3 100 C-5.57677664 96.12970201 -5.34348896 92.04086026 -5.3125 87.5625 C-5.30831055 86.72630127 -5.30412109 85.89010254 -5.29980469 85.02856445 C-5.09843277 73.48931081 -3.3206152 62.07290988 -0.91015625 50.80078125 C1.37043313 39.93527247 2.36740603 29.56059249 2.375 18.4375 C2.37653076 17.18195313 2.37806152 15.92640625 2.37963867 14.6328125 C2.3010818 7.09944331 2.3010818 7.09944331 0 0 Z " transform="translate(259,172)" style="fill: #FADAC2;"/><path d="M0 0 C2.83900708 1.89267139 4.50212126 3.940503 6 7 C8.01876929 17.85502178 3.14886533 28.40634272 -1.4375 38 C-1.86345459 38.89485107 -2.28940918 39.78970215 -2.72827148 40.71166992 C-7.29376282 50.02244806 -12.82893043 58.67363101 -19 67 C-19.33 67 -19.66 67 -20 67 C-20.029729 65.68563965 -20.029729 65.68563965 -20.06005859 64.34472656 C-20.13904139 61.03443082 -20.2257524 57.72451173 -20.31738281 54.41455078 C-20.35522034 52.99307816 -20.39014384 51.57152439 -20.421875 50.14990234 C-20.4556001 30.01924979 -20.4556001 30.01924979 -28.5 12.1875 C-36.22621861 5.03359388 -44.73492065 3.34738001 -55 3 C-55 2.67 -55 2.34 -55 2 C-50.42848262 1.95028049 -45.85712532 1.91413024 -41.28540039 1.89013672 C-39.73263809 1.88012619 -38.17989442 1.86651366 -36.62719727 1.84912109 C-34.38553245 1.82465348 -32.14411851 1.81346732 -29.90234375 1.8046875 C-29.21663803 1.79436493 -28.53093231 1.78404236 -27.82444763 1.77340698 C-23.14702921 1.77233666 -19.3951597 2.55576901 -15 4 C-15.48339844 4.8353125 -15.48339844 4.8353125 -15.9765625 5.6875 C-17.733389 9.65712324 -17.60771863 13.74596959 -17 18 C-15.20808542 20.63516042 -15.20808542 20.63516042 -13 22 C-13.495 21.01 -13.495 21.01 -14 20 C-15.6019956 15.19401321 -15.83926071 10.94355112 -13.8125 6.25 C-9.76855578 1.22993131 -6.6538659 -1.28407938 0 0 Z " transform="translate(305,166)" style="fill: #F9D9C2;"/><path d="M0 0 C3.3 0.66 6.6 1.32 10 2 C10 2.66 10 3.32 10 4 C8.35 4.66 6.7 5.32 5 6 C7.85306797 8.32472205 10.54074837 9.7508258 14 11 C14 11.66 14 12.32 14 13 C12.68 12.67 11.36 12.34 10 12 C10.33 13.65 10.66 15.3 11 17 C5.555 17.99 5.555 17.99 0 19 C2.97 19 5.94 19 9 19 C8.34 19.66 7.68 20.32 7 21 C8.2065625 21.433125 8.2065625 21.433125 9.4375 21.875 C12 23 12 23 13 25 C13.33 24.67 13.66 24.34 14 24 C15.4555937 23.90141397 16.91607919 23.87027857 18.375 23.875 C19.16648437 23.87242187 19.95796875 23.86984375 20.7734375 23.8671875 C23 24 23 24 26 25 C24.88444218 38.38669382 22.18156528 53.44290405 12 63 C8.77626323 65.14915785 7.73296326 65.38286803 4 65 C2 63 2 63 1.734375 61.15234375 C1.7626204 57.14855771 2.01863653 53.51540518 3 49.625 C4.49979554 43.58327047 4.98375739 36.95127217 3 31 C1.21771064 29.85790183 1.21771064 29.85790183 -1 29 C-2.051875 28.4740625 -2.051875 28.4740625 -3.125 27.9375 C-7.33736899 26.56390142 -11.59765442 26.32483327 -16 26 C-12.5447717 20.14060935 -8.85273723 14.42732034 -5.20703125 8.68554688 C-4.68238281 7.85732422 -4.15773438 7.02910156 -3.6171875 6.17578125 C-3.13878418 5.42208252 -2.66038086 4.66838379 -2.16748047 3.8918457 C-0.96998194 2.01424785 -0.96998194 2.01424785 0 0 Z " transform="translate(309,211)" style="fill: #F9DAC2;"/><path d="M0 0 C3.14970783 -0.00222054 6.29908246 -0.020579 9.44873047 -0.03930664 C27.71914112 -0.08830028 27.71914112 -0.08830028 36.29174805 1.75439453 C38.45442869 2.17800249 40.35757682 2.25614346 42.55419922 2.18530273 C45.49169922 2.18530273 45.49169922 2.18530273 48.49169922 4.18530273 C47.46044922 4.88655273 46.42919922 5.58780273 45.36669922 6.31030273 C35.36057006 15.02271014 33.73297364 30.8187415 31.49169922 43.18530273 C31.16169922 43.18530273 30.83169922 43.18530273 30.49169922 43.18530273 C30.40533203 41.99936523 30.31896484 40.81342773 30.22998047 39.59155273 C28.98128833 21.28696514 28.98128833 21.28696514 21.03076172 5.31811523 C17.64417064 2.47337873 15.92365762 1.88483098 11.49169922 2.18530273 C4.21007501 6.30462157 0.14536097 13.30912848 -2.0703125 21.18237305 C-2.81879805 24.08348995 -3.53099116 26.98722859 -4.16552734 29.91552734 C-4.55754055 31.68535169 -5.02671779 33.4377243 -5.50830078 35.18530273 C-6.49830078 35.68030273 -6.49830078 35.68030273 -7.50830078 36.18530273 C-7.59466797 35.36288086 -7.68103516 34.54045898 -7.77001953 33.69311523 C-9.05487866 23.48496836 -11.328782 15.08925163 -19.56689453 8.43920898 C-24.98053596 4.94267196 -29.57995041 3.619019 -35.88330078 2.99780273 C-36.61935547 2.91594727 -37.35541016 2.8340918 -38.11376953 2.74975586 C-39.91084703 2.55137717 -41.70944971 2.36689696 -43.50830078 2.18530273 C-43.50830078 1.85530273 -43.50830078 1.52530273 -43.50830078 1.18530273 C-29.00042057 0.40543462 -14.52904356 -0.00114492 0 0 Z " transform="translate(196.50830078125,166.814697265625)" style="fill: #FADAC2;"/><path d="M0 0 C0.99 0.33 1.98 0.66 3 1 C2.34 1.9075 1.68 2.815 1 3.75 C-1.34939828 6.93175815 -1.34939828 6.93175815 -1 11 C-1.350625 11.66 -1.70125 12.32 -2.0625 13 C-3.18674827 14.96453318 -3.18674827 14.96453318 -2.8125 17.1875 C-2.544375 17.785625 -2.27625 18.38375 -2 19 C-1.01 19.33 -0.02 19.66 1 20 C1 21.98 1 23.96 1 26 C1.76183594 25.98839844 2.52367187 25.97679687 3.30859375 25.96484375 C9.63840322 25.90952706 15.72555549 26.1634074 22 27 C21.48636502 29.24131626 21.00975849 30.98265158 19.875 33 C18.78906404 35.48213933 19.34179444 36.44945347 20 39 C19.34 39.99 18.68 40.98 18 42 C18.71027344 42.04898438 19.42054688 42.09796875 20.15234375 42.1484375 C21.07144531 42.22320312 21.99054688 42.29796875 22.9375 42.375 C23.85402344 42.44460937 24.77054688 42.51421875 25.71484375 42.5859375 C26.84599609 42.79089844 26.84599609 42.79089844 28 43 C28.33 43.66 28.66 44.32 29 45 C22.73675434 46.16654041 16.66533354 46.18387188 10.3125 46.1875 C8.60223633 46.20586914 8.60223633 46.20586914 6.85742188 46.22460938 C5.22063477 46.22750977 5.22063477 46.22750977 3.55078125 46.23046875 C2.55731689 46.23457764 1.56385254 46.23868652 0.5402832 46.24291992 C-2 46 -2 46 -5 44 C-5.9140625 42.1953125 -5.9140625 42.1953125 -6.625 40.125 C-6.98464844 39.10792969 -6.98464844 39.10792969 -7.3515625 38.0703125 C-10.65400688 27.52636359 -9.85864601 16.91493187 -5 7 C-3.56339641 4.46717276 -2.07354496 2.07354496 0 0 Z " transform="translate(137,180)" style="fill: #FCFAFA;"/><path d="M0 0 C2.125 0.375 2.125 0.375 4 1 C8.59273044 13.01491087 8.44795078 24.31610135 8 37 C8.99 37 9.98 37 11 37 C11.23789916 43.97837542 10.92670451 50.76763544 10.0625 57.6875 C9.97564941 58.39455078 9.88879883 59.10160156 9.79931641 59.83007812 C9.13194481 64.86805519 9.13194481 64.86805519 8 66 C6.1875 66.1328125 6.1875 66.1328125 4 66.125 C3.278125 66.12757813 2.55625 66.13015625 1.8125 66.1328125 C0 66 0 66 -1 65 C-1.13412388 63.04800941 -1.19906657 61.09123391 -1.23706055 59.13500977 C-1.26346115 57.88023331 -1.28986176 56.62545685 -1.31706238 55.33265686 C-1.34068864 53.9522469 -1.36389732 52.57182975 -1.38671875 51.19140625 C-1.41236139 49.78514861 -1.43814544 48.37889354 -1.46406555 46.97264099 C-1.51710436 44.02111617 -1.5660209 41.0695542 -1.61254883 38.11791992 C-1.67292896 34.33003255 -1.74714234 30.54255524 -1.82492352 26.75499058 C-1.88244355 23.84952343 -1.93077927 20.94395682 -1.976511 18.03828239 C-1.99996308 16.64154122 -2.02673047 15.24485174 -2.05682945 13.84823799 C-2.09786656 11.89713197 -2.12483849 9.94574529 -2.15112305 7.99438477 C-2.17031296 6.88265396 -2.18950287 5.77092316 -2.20927429 4.62550354 C-2 2 -2 2 0 0 Z " transform="translate(218,176)" style="fill: #5A4232;"/><path d="M0 0 C0.66 0.99 1.32 1.98 2 3 C1.35546875 5.12109375 1.35546875 5.12109375 0.1875 7.4375 C-3.98010873 15.84383706 -4.64528262 25.85871227 -1.75 34.875 C-1.19883747 36.26320843 -0.61588255 37.63926804 0 39 C0.30164063 39.69738281 0.60328125 40.39476562 0.9140625 41.11328125 C4.18989714 48.18429016 8.40725463 53.43765773 15.3828125 57.08984375 C20.12431784 58.73875531 25.06094527 58.73199719 30 58 C30.66 57.34 31.32 56.68 32 56 C32.99 56.33 33.98 56.66 35 57 C32.42431777 59.8209853 30.48428881 60.82967178 26.6171875 61.2734375 C19.36594794 61.54200193 14.92319593 60.12938253 9 56 C8.13375 55.443125 7.2675 54.88625 6.375 54.3125 C-2.80543241 45.37365791 -7.31461884 34.64536957 -7.5 21.875 C-7.41516881 13.32926712 -5.26838179 6.70246852 0 0 Z " transform="translate(132,182)" style="fill: #715949;"/><path d="M0 0 C-0.56847656 0.28101563 -1.13695312 0.56203125 -1.72265625 0.8515625 C-3.98214259 1.99099472 -6.21479163 3.1654152 -8.4375 4.375 C-9.54931641 4.97441406 -9.54931641 4.97441406 -10.68359375 5.5859375 C-13.11862764 6.96235331 -13.11862764 6.96235331 -15.28515625 9.16015625 C-18.89127225 11.60401328 -21.8317833 11.41241487 -26 11.0625 C-26.69867188 11.03865234 -27.39734375 11.01480469 -28.1171875 10.99023438 C-32.05213361 10.7192428 -33.91714585 10.06742688 -37 7.55859375 C-39 5 -39 5 -39 3 C-38.06994141 3.01740234 -38.06994141 3.01740234 -37.12109375 3.03515625 C-24.66557289 3.1620684 -12.05436597 -0.58801785 0 0 Z " transform="translate(152,169)" style="fill: #FCDEC7;"/><path d="M0 0 C0.66 0 1.32 0 2 0 C3.06503709 12.57335449 -0.88234122 28.9258623 -8.875 38.9375 C-12.67077337 42.97110378 -16.12171589 44.80898806 -21.6875 45.375 C-25 45 -25 45 -27.0625 44 C-28.681652 40.54580908 -27.10147324 37.53630884 -26 34 C-25.67 34 -25.34 34 -25 34 C-24.855625 35.134375 -24.71125 36.26875 -24.5625 37.4375 C-24.38828522 40.80777201 -24.38828522 40.80777201 -23 42 C-19.45379643 42.60792061 -18.08330505 42.05206566 -15 40.125 C-6.26520074 32.17610813 -3.92613479 18.5104187 -2.00146484 7.40771484 C-1.09276803 2.18553606 -1.09276803 2.18553606 0 0 Z " transform="translate(336,233)" style="fill: #664D3D;"/><path d="M0 0 C3.94354731 0.95189073 5.81546785 1.98283455 8.625 4.875 C9.4375 7.125 9.4375 7.125 9.625 8.875 C8.305 9.205 6.985 9.535 5.625 9.875 C5.625 13.505 5.625 17.135 5.625 20.875 C5.295 20.875 4.965 20.875 4.625 20.875 C4.42583984 19.28558594 4.42583984 19.28558594 4.22265625 17.6640625 C4.04446125 16.27601721 3.8660654 14.88799769 3.6875 13.5 C3.60048828 12.80132812 3.51347656 12.10265625 3.42382812 11.3828125 C2.96181872 7.50716425 2.96181872 7.50716425 1.625 3.875 C-1.16339304 3.37234308 -1.16339304 3.37234308 -4.375 3.875 C-12.5133962 11.21940633 -16.10980261 23.72421973 -17.5 34.25 C-17.66757813 35.49523437 -17.83515625 36.74046875 -18.0078125 38.0234375 C-18.12898437 38.96445313 -18.25015625 39.90546875 -18.375 40.875 C-18.705 40.875 -19.035 40.875 -19.375 40.875 C-19.375 39.225 -19.375 37.575 -19.375 35.875 C-20.86 36.37 -20.86 36.37 -22.375 36.875 C-13.97689879 -0.51766292 -13.97689879 -0.51766292 0 0 Z " transform="translate(211.375,168.125)" style="fill: #6D5444;"/><path d="M0 0 C-0.66 0.66 -1.32 1.32 -2 2 C-2 2.33 -2 2.66 -2 3 C-2.886875 3.144375 -3.77375 3.28875 -4.6875 3.4375 C-10.94710819 6.39014537 -12.79450653 13.09096149 -15.0625 19.3125 C-17.83136545 28.00334708 -19.34688877 37.04343272 -21 46 C-21.495 44.515 -21.495 44.515 -22 43 C-22.99 43 -23.98 43 -25 43 C-25 38.38 -25 33.76 -25 29 C-24.67 29 -24.34 29 -24 29 C-23.67 30.65 -23.34 32.3 -23 34 C-22.78085938 32.98421875 -22.56171875 31.9684375 -22.3359375 30.921875 C-19.60256413 18.82304693 -16.5620898 7.51533313 -6 0 C-3.50907189 -1.24546405 -2.58919267 -0.7767578 0 0 Z " transform="translate(251,170)" style="fill: #725848;"/><path d="M0 0 C7.92 0 15.84 0 24 0 C24 0.66 24 1.32 24 2 C24.71027344 2.04898438 25.42054688 2.09796875 26.15234375 2.1484375 C27.53099609 2.26058594 27.53099609 2.26058594 28.9375 2.375 C30.31228516 2.47941406 30.31228516 2.47941406 31.71484375 2.5859375 C32.46894531 2.72257813 33.22304687 2.85921875 34 3 C34.495 3.99 34.495 3.99 35 5 C28.73675434 6.16654041 22.66533354 6.18387188 16.3125 6.1875 C14.60223633 6.20586914 14.60223633 6.20586914 12.85742188 6.22460938 C11.22063477 6.22750977 11.22063477 6.22750977 9.55078125 6.23046875 C8.55731689 6.23457764 7.56385254 6.23868652 6.5402832 6.24291992 C4 6 4 6 1 4 C0.67 2.68 0.34 1.36 0 0 Z " transform="translate(131,220)" style="fill: #FEF4ED;"/><path d="M0 0 C0.825 0.598125 1.65 1.19625 2.5 1.8125 C1.51 4.4525 0.52 7.0925 -0.5 9.8125 C-1.70833333 8 -2.91666667 6.1875 -4.125 4.375 C-8.59711304 -0.4501746 -13.30755302 -2.41558969 -19.875 -2.75 C-28.88253067 -2.37572587 -35.33900773 1.99336319 -41.3203125 8.45703125 C-41.70960938 8.90433594 -42.09890625 9.35164062 -42.5 9.8125 C-42.83 8.8225 -43.16 7.8325 -43.5 6.8125 C-31.92177901 -6.06827085 -15.14267124 -9.87260005 0 0 Z " transform="translate(176.5,174.1875)" style="fill: #614838;"/><path d="M0 0 C3.5625 0.5625 3.5625 0.5625 6.5 2.4375 C9.38525119 6.80909272 9.00744135 10.47039339 8.5625 15.5625 C7.5725 15.5625 6.5825 15.5625 5.5625 15.5625 C5.5625 14.5725 5.5625 13.5825 5.5625 12.5625 C1.1075 11.5725 1.1075 11.5725 -3.4375 10.5625 C-3.4375 7.5625 -3.4375 7.5625 -2.4375 5.5625 C-4.0875 5.2325 -5.7375 4.9025 -7.4375 4.5625 C-5.05804913 1.51680289 -3.87891882 0.63473217 0 0 Z " transform="translate(301.4375,165.4375)" style="fill: #FAF8F7;"/><path d="M0 0 C4.10899581 1.12795963 8.07561214 2.33510818 12 4 C11.01 4.66 10.02 5.32 9 6 C8.67 6.99 8.34 7.98 8 9 C8.66 9 9.32 9 10 9 C9.67 9.99 9.34 10.98 9 12 C4.71 12.66 0.42 13.32 -4 14 C-3.25130208 11.52604167 -2.50260417 9.05208333 -1.75390625 6.578125 C-1.11531506 4.39434165 -0.53224167 2.21164502 0 0 Z " transform="translate(316,193)" style="fill: #F9DAC3;"/><path d="M0 0 C0 0.66 0 1.32 0 2 C-4.18863272 4.03263737 -7.93274945 4.27875359 -12.50390625 4.23046875 C-13.58260231 4.22978142 -13.58260231 4.22978142 -14.68309021 4.2290802 C-16.20353853 4.22606754 -17.72398403 4.21821081 -19.24438477 4.20581055 C-21.53087769 4.18774978 -23.81695931 4.18529992 -26.10351562 4.18554688 C-34.44828309 4.16478113 -42.69257412 3.8760045 -51 3 C-51 2.67 -51 2.34 -51 2 C-48.56304285 1.77818594 -46.126474 1.57208881 -43.6875 1.375 C-42.99720703 1.31054688 -42.30691406 1.24609375 -41.59570312 1.1796875 C-37.7440028 0.88197153 -36.31145584 0.79236277 -33 3 C-33 2.34 -33 1.68 -33 1 C-29.7 1 -26.4 1 -23 1 C-23 1.66 -23 2.32 -23 3 C-22.34 2.34 -21.68 1.68 -21 1 C-18.18272713 0.69085826 -15.45036307 0.48763906 -12.625 0.375 C-11.85671875 0.33632812 -11.0884375 0.29765625 -10.296875 0.2578125 C-6.85645489 0.09114855 -3.44639897 0 0 0 Z " transform="translate(206,164)" style="fill: #FEF1E7;"/><path d="M0 0 C0.495 0.33 0.99 0.66 1.5 1 C1.17 1.99 0.84 2.98 0.5 4 C-0.49 3.34 -1.48 2.68 -2.5 2 C-5.79298055 1.56507804 -8.30334957 1.30706211 -11.25390625 3.015625 C-13.95601856 5.17731485 -15.3966607 6.68998211 -16.5 10 C-16.64632404 14.53604515 -16.60636545 18.57453821 -15.5 23 C-19.375 21.25 -19.375 21.25 -20.5 19 C-21.15337047 13.89437644 -21.28605642 9.42495895 -18.3125 5.0625 C-13.32445715 -0.84512616 -7.49122312 -2.99648925 0 0 Z " transform="translate(307.5,165)" style="fill: #61493A;"/><path d="M0 0 C2.10407096 1.69636171 2.93240678 2.54981464 3.34057617 5.26831055 C3.32486572 6.13238525 3.30915527 6.99645996 3.29296875 7.88671875 C3.28330078 8.82451172 3.27363281 9.76230469 3.26367188 10.72851562 C3.23853516 11.70498047 3.21339844 12.68144531 3.1875 13.6875 C3.16719727 15.16959961 3.16719727 15.16959961 3.14648438 16.68164062 C3.11112203 19.12164231 3.06177033 21.56054719 3 24 C2.67 24 2.34 24 2 24 C1.67 18.39 1.34 12.78 1 7 C-0.03125 8.69125 -1.0625 10.3825 -2.125 12.125 C-7.66177224 20.72419537 -7.66177224 20.72419537 -12 24 C-14.85724959 24.47188696 -17.07919166 24.30215259 -20 24 C-20 23.67 -20 23.34 -20 23 C-17.69 23 -15.38 23 -13 23 C-13 22.34 -13 21.68 -13 21 C-14.32 21 -15.64 21 -17 21 C-16.67 20.34 -16.34 19.68 -16 19 C-14.59814453 18.84917969 -14.59814453 18.84917969 -13.16796875 18.6953125 C-9.86732036 18.29554941 -9.86732036 18.29554941 -7.98828125 15.7421875 C-7.43527344 14.79601562 -6.88226563 13.84984375 -6.3125 12.875 C-5.72984375 11.88628906 -5.1471875 10.89757812 -4.546875 9.87890625 C-2.80337964 6.63406766 -1.30109579 3.44407708 0 0 Z " transform="translate(272,252)" style="fill: #795F4F;"/><path d="M0 0 C7.76871844 -0.13862888 15.44328997 0.28031568 23.1875 0.875 C24.32380859 0.95363281 25.46011719 1.03226563 26.63085938 1.11328125 C32.3474948 1.54661221 37.57034221 2.12987185 43 4 C43 4.33 43 4.66 43 5 C41.4792733 5.02753831 39.95839326 5.04663375 38.4375 5.0625 C37.59058594 5.07410156 36.74367188 5.08570313 35.87109375 5.09765625 C33 5 33 5 29.75390625 4.52734375 C25.33279125 3.9062714 20.95680422 3.69010065 16.5 3.5 C10.93326065 3.26255614 5.5038004 2.88770974 0 2 C0 1.34 0 0.68 0 0 Z " transform="translate(339,236)" style="fill: #FEE4D0;"/><path d="M0 0 C0.66 0 1.32 0 2 0 C2.53461255 6.31139814 1.76167699 11.9745669 0.1875 18.0625 C0.02217773 18.72967041 -0.14314453 19.39684082 -0.31347656 20.08422852 C-0.83203125 21.97265625 -0.83203125 21.97265625 -2 25 C-2.99 25.33 -3.98 25.66 -5 26 C-4.3567559 20.49531492 -3.53169401 15.06948422 -2.5 9.625 C-2.36980469 8.91472656 -2.23960937 8.20445312 -2.10546875 7.47265625 C-1.12397891 2.24795783 -1.12397891 2.24795783 0 0 Z " transform="translate(336,233)" style="fill: #634B3B;"/><path d="M0 0 C5.94 0.33 11.88 0.66 18 1 C18 1.33 18 1.66 18 2 C16.02 2.33 14.04 2.66 12 3 C12.99 4.65 13.98 6.3 15 8 C14.47664063 7.690625 13.95328125 7.38125 13.4140625 7.0625 C9.42696151 5.30765944 5.19201815 5.10281577 0.8984375 4.5625 C-2 4 -2 4 -4 2 C-2.68 2 -1.36 2 0 2 C0 1.34 0 0.68 0 0 Z " transform="translate(360,261)" style="fill: #FEF0E5;"/><path d="M0 0 C2.735991 1.21052839 5.3743835 2.56723973 8 4 C7.67 4.66 7.34 5.32 7 6 C6.34 6 5.68 6 5 6 C4.67 6.99 4.34 7.98 4 9 C3.38511719 8.57847656 2.77023437 8.15695313 2.13671875 7.72265625 C0.92435547 6.90087891 0.92435547 6.90087891 -0.3125 6.0625 C-1.11300781 5.51722656 -1.91351563 4.97195312 -2.73828125 4.41015625 C-5.0258143 2.86162674 -5.0258143 2.86162674 -8 2 C-8 1.34 -8 0.68 -8 0 C-5.00661116 -1.49669442 -3.23905799 -0.77977322 0 0 Z " transform="translate(265,170)" style="fill: #654D3D;"/><path d="M0 0 C0.66 0.99 1.32 1.98 2 3 C1.390625 5.12109375 1.390625 5.12109375 0.25 7.4375 C-0.11609375 8.19933594 -0.4821875 8.96117187 -0.859375 9.74609375 C-1.23578125 10.48988281 -1.6121875 11.23367187 -2 12 C-2.37640625 12.75410156 -2.7528125 13.50820312 -3.140625 14.28515625 C-3.56601563 15.13400391 -3.56601563 15.13400391 -4 16 C-4.33 15.67 -4.66 15.34 -5 15 C-5.33 19.95 -5.66 24.9 -6 30 C-6.33 30 -6.66 30 -7 30 C-7.51092546 18.56094668 -7.38843129 9.39960886 0 0 Z " transform="translate(132,182)" style="fill: #826F62;"/><path d="M0 0 C0.33 0.99 0.66 1.98 1 3 C-9.395 3.495 -9.395 3.495 -20 4 C-20 3.01 -20 2.02 -20 1 C-13.34362157 -0.23839599 -6.7528064 -0.09139136 0 0 Z " transform="translate(129,223)" style="fill: #FDF5EF;"/><path d="M0 0 C0 0.33 0 0.66 0 1 C-1.27875 1.061875 -2.5575 1.12375 -3.875 1.1875 C-13.19271215 2.25698583 -19.96364124 7.06418381 -26 14 C-26.33 13.01 -26.66 12.02 -27 11 C-19.05872488 2.16533143 -11.81365967 -1.77204895 0 0 Z " transform="translate(160,170)" style="fill: #6A5142;"/><path d="M0 0 C7.26 0 14.52 0 22 0 C21.67 0.66 21.34 1.32 21 2 C18.0859375 2.4140625 18.0859375 2.4140625 14.375 2.625 C13.16585937 2.69976562 11.95671875 2.77453125 10.7109375 2.8515625 C7.13574706 2.99457012 3.57758654 3.02759064 0 3 C0 2.01 0 1.02 0 0 Z " transform="translate(132,221)" style="fill: #FCDDC6;"/><path d="M0 0 C0.33 0 0.66 0 1 0 C1.33 7.59 1.66 15.18 2 23 C1.34 23.33 0.68 23.66 0 24 C-0.90683762 21.27948714 -1.12842547 19.67266994 -1.1328125 16.875 C-1.13410156 16.08609375 -1.13539062 15.2971875 -1.13671875 14.484375 C-1.13285156 13.66453125 -1.12898438 12.8446875 -1.125 12 C-1.12886719 11.18015625 -1.13273437 10.3603125 -1.13671875 9.515625 C-1.13542969 8.72671875 -1.13414063 7.9378125 -1.1328125 7.125 C-1.13168457 6.40570313 -1.13055664 5.68640625 -1.12939453 4.9453125 C-1 3 -1 3 0 0 Z " transform="translate(127,194)" style="fill: #624A3C;"/><path d="M0 0 C0.33 0 0.66 0 1 0 C1.144375 1.134375 1.28875 2.26875 1.4375 3.4375 C1.61171478 6.80777201 1.61171478 6.80777201 3 8 C6.62059232 8.29356154 8.87703962 7.85064319 12 6 C11.6875 7.9375 11.6875 7.9375 11 10 C6.90063224 11.36645592 2.93352031 11.93746439 -1.0625 10 C-2.681652 6.54580908 -1.10147324 3.53630884 0 0 Z " transform="translate(310,267)" style="fill: #735A4A;"/><path d="M0 0 C2 3 2 3 3 8 C-4.92 8.495 -4.92 8.495 -13 9 C-13.33 8.34 -13.66 7.68 -14 7 C-10.71480525 5.90493508 -8.26336585 5.90039392 -4.8125 5.9375 C-3.18248047 5.95103516 -3.18248047 5.95103516 -1.51953125 5.96484375 C-0.68808594 5.97644531 0.14335938 5.98804688 1 6 C0.67 4.02 0.34 2.04 0 0 Z " transform="translate(126,215)" style="fill: #F2D6C1;"/><path d="M0 0 C1.65872188 6.63488752 1.40836693 13.31025707 0 20 C-0.33 20 -0.66 20 -1 20 C-1 18.35 -1 16.7 -1 15 C-1.99 15.33 -2.98 15.66 -4 16 C-2.68 10.72 -1.36 5.44 0 0 Z " transform="translate(193,189)" style="fill: #836957;"/><path d="M0 0 C-0.66 0.66 -1.32 1.32 -2 2 C-2 2.33 -2 2.66 -2 3 C-2.9075 3.226875 -3.815 3.45375 -4.75 3.6875 C-8.44888324 5.18127977 -9.77905658 6.75400577 -12 10 C-12.66 9.67 -13.32 9.34 -14 9 C-11.83249022 3.14772361 -6.25484031 -1.87645209 0 0 Z " transform="translate(251,170)" style="fill: #6D5444;"/><path d="M0 0 C0.99 0 1.98 0 3 0 C2.52343588 1.79236067 2.04366502 3.58386897 1.5625 5.375 C1.29566406 6.37273437 1.02882812 7.37046875 0.75390625 8.3984375 C0 11 0 11 -1 13 C-1.66 13 -2.32 13 -3 13 C-2.88490339 11.58249437 -2.75746342 10.16598831 -2.625 8.75 C-2.55539063 7.96109375 -2.48578125 7.1721875 -2.4140625 6.359375 C-1.98492887 3.914123 -1.21399362 2.15163097 0 0 Z " transform="translate(236,179)" style="fill: #684F3F;"/><path d="M0 0 C2.5 1 2.5 1 4 2 C3.67 2.99 3.34 3.98 3 5 C2.01 4.34 1.02 3.68 0 3 C-4.2475253 2.69108907 -7.3586453 2.66953299 -11 5 C-11.66 4.34 -12.32 3.68 -13 3 C-8.49636698 -0.37772476 -5.44178833 -0.43188796 0 0 Z " transform="translate(305,164)" style="fill: #837065;"/><path d="M0 0 C6.93 0 13.86 0 21 0 C21.33 1.65 21.66 3.3 22 5 C21.41734375 4.79503906 20.8346875 4.59007812 20.234375 4.37890625 C13.49496004 2.16422429 7.07052165 1.35231122 0 1 C0 0.67 0 0.34 0 0 Z " transform="translate(153,168)" style="fill: #E4C9B7;"/><path d="M0 0 C0.66 0.33 1.32 0.66 2 1 C2 0.34 2 -0.32 2 -1 C2.99 -0.67 3.98 -0.34 5 0 C6.72536537 0.37224418 8.45500309 0.7250006 10.1875 1.0625 C11.08855469 1.23910156 11.98960937 1.41570312 12.91796875 1.59765625 C13.60503906 1.73042969 14.29210937 1.86320313 15 2 C15 2.33 15 2.66 15 3 C8.07 2.67 1.14 2.34 -6 2 C-6 1.34 -6 0.68 -6 0 C-3.4832097 -1.25839515 -2.62168527 -0.81927665 0 0 Z " transform="translate(214,165)" style="fill: #FEF4ED;"/><path d="M0 0 C1.76923828 0.01353516 1.76923828 0.01353516 3.57421875 0.02734375 C4.47785156 0.03894531 5.38148438 0.05054688 6.3125 0.0625 C6.3125 0.7225 6.3125 1.3825 6.3125 2.0625 C-1.6075 2.5575 -1.6075 2.5575 -9.6875 3.0625 C-9.6875 2.4025 -9.6875 1.7425 -9.6875 1.0625 C-6.26517028 -0.07827657 -3.60076783 -0.03565117 0 0 Z " transform="translate(198.6875,268.9375)" style="fill: #FDEEE2;"/><path d="M0 0 C0 0.66 0 1.32 0 2 C1.98 2 3.96 2 6 2 C6 2.33 6 2.66 6 3 C4.25215171 3.36463732 2.50159498 3.7163078 0.75 4.0625 C-0.71179688 4.35833984 -0.71179688 4.35833984 -2.203125 4.66015625 C-4.868119 4.98397535 -6.48871723 4.85503199 -9 4 C-6.31059578 0.90718514 -4.07621501 0 0 0 Z " transform="translate(147,166)" style="fill: #FEEDE1;"/><path d="M0 0 C0.99 0.33 1.98 0.66 3 1 C0.94766315 3.2477975 -0.00667261 4.0022242 -3 5 C-4.89470816 5.0685495 -6.7916834 5.08480372 -8.6875 5.0625 C-9.68136719 5.05347656 -10.67523438 5.04445312 -11.69921875 5.03515625 C-12.83810547 5.01775391 -12.83810547 5.01775391 -14 5 C-10.45307425 2.63538283 -8.19852591 2.61566673 -4.05859375 2.34375 C-1.78100001 2.1683252 -1.78100001 2.1683252 0 0 Z " transform="translate(164,238)" style="fill: #987E6B;"/><path d="M0 0 C0.66 0.99 1.32 1.98 2 3 C1.3203125 5.26171875 1.3203125 5.26171875 0.125 7.6875 C-0.45894531 8.89986328 -0.45894531 8.89986328 -1.0546875 10.13671875 C-1.52261719 11.05904297 -1.52261719 11.05904297 -2 12 C-4 9 -4 9 -3.8125 6.5625 C-2.95218569 3.84920103 -1.83477535 2.15386671 0 0 Z " transform="translate(132,182)" style="fill: #796458;"/><path d="M0 0 C0.33 0 0.66 0 1 0 C1.28571429 7.42857143 1.28571429 7.42857143 -1 11 C-1.66 11 -2.32 11 -3 11 C-2.25 3.375 -2.25 3.375 0 0 Z " transform="translate(334,248)" style="fill: #5D4536;"/><path d="M0 0 C2.97 0.33 5.94 0.66 9 1 C8.01 1.495 8.01 1.495 7 2 C7 2.66 7 3.32 7 4 C4.69 4 2.38 4 0 4 C0 2.68 0 1.36 0 0 Z " transform="translate(298,176)" style="fill: #FDE6D4;"/><path d="M0 0 C0.33 0 0.66 0 1 0 C1 2.64 1 5.28 1 8 C1.99 8.33 2.98 8.66 4 9 C4.33 10.65 4.66 12.3 5 14 C1.125 12.25 1.125 12.25 0 10 C-0.06996014 8.29297265 -0.08440154 6.58331997 -0.0625 4.875 C-0.05347656 3.96492187 -0.04445313 3.05484375 -0.03515625 2.1171875 C-0.02355469 1.41851562 -0.01195312 0.71984375 0 0 Z " transform="translate(287,174)" style="fill: #795F4E;"/><path d="M0 0 C2 1 2 1 3 3 C0.11584117 4.44207941 -2.41721528 4.09394887 -5.625 4.0625 C-6.81351562 4.05347656 -8.00203125 4.04445313 -9.2265625 4.03515625 C-10.14179688 4.02355469 -11.05703125 4.01195312 -12 4 C-12 3.67 -12 3.34 -12 3 C-6.06 2.505 -6.06 2.505 0 2 C0 1.34 0 0.68 0 0 Z " transform="translate(303,259)" style="fill: #FEF1E8;"/><path d="M0 0 C2.31 0 4.62 0 7 0 C6.125 3.875 6.125 3.875 5 5 C2.32941149 5.14115161 -0.32432238 5.04247107 -3 5 C-3 4.67 -3 4.34 -3 4 C-0.69 4 1.62 4 4 4 C4 3.34 4 2.68 4 2 C2.68 2 1.36 2 0 2 C0 1.34 0 0.68 0 0 Z " transform="translate(255,271)" style="fill: #7F6555;"/><path d="M0 0 C1.98 0 3.96 0 6 0 C5.67 1.32 5.34 2.64 5 4 C3.02 4 1.04 4 -1 4 C-0.67 2.68 -0.34 1.36 0 0 Z " transform="translate(172,270)" style="fill: #FEF4ED;"/><path d="M0 0 C0.33 1.32 0.66 2.64 1 4 C1.66 4 2.32 4 3 4 C2.67 6.64 2.34 9.28 2 12 C0.48046875 10.79296875 0.48046875 10.79296875 -1 9 C-1.07421875 6.73828125 -1.07421875 6.73828125 -0.6875 4.3125 C-0.56761719 3.50425781 -0.44773437 2.69601563 -0.32421875 1.86328125 C-0.21722656 1.24839844 -0.11023438 0.63351563 0 0 Z " transform="translate(334,240)" style="fill: #755C4B;"/><path d="M0 0 C0.99 0.33 1.98 0.66 3 1 C1.1875 4 1.1875 4 -1 7 C-1.99 7 -2.98 7 -4 7 C-2.92598892 4.08482708 -2.22189824 2.22189824 0 0 Z " transform="translate(137,180)" style="fill: #EEE9E6;"/><path d="M0 0 C0 0.33 0 0.66 0 1 C-0.90492188 1.09087891 -0.90492188 1.09087891 -1.828125 1.18359375 C-3.02695313 1.30927734 -3.02695313 1.30927734 -4.25 1.4375 C-5.03890625 1.51871094 -5.8278125 1.59992188 -6.640625 1.68359375 C-8.82364639 1.97634993 -10.8773182 2.42064419 -13 3 C-13.33 2.34 -13.66 1.68 -14 1 C-8.80451575 -1.20808081 -5.41735797 -0.93402724 0 0 Z " transform="translate(160,170)" style="fill: #725948;"/><path d="M0 0 C0.33 0 0.66 0 1 0 C1.33 3.96 1.66 7.92 2 12 C1.67 12 1.34 12 1 12 C0.34 10.02 -0.32 8.04 -1 6 C-1.66 6 -2.32 6 -3 6 C-2 4 -1 2 0 0 Z " transform="translate(187,190)" style="fill: #6D5343;"/><path d="M0 0 C1.62418745 -0.08090971 3.24951745 -0.13914995 4.875 -0.1875 C5.77992188 -0.22230469 6.68484375 -0.25710937 7.6171875 -0.29296875 C8.79667969 -0.14794922 8.79667969 -0.14794922 10 0 C10.66 0.99 11.32 1.98 12 3 C7.97007218 2.44687265 3.97977076 1.8441938 0 1 C0 0.67 0 0.34 0 0 Z " transform="translate(155,169)" style="fill: #5D4535;"/><path d="M0 0 C0.33 0.66 0.66 1.32 1 2 C-0.28062485 3.7074998 -1.61767557 5.37373596 -3 7 C-3.66 7 -4.32 7 -5 7 C-4.60196439 4.11424181 -4.20990931 3.17810487 -1.9375 1.25 C-1.298125 0.8375 -0.65875 0.425 0 0 Z " transform="translate(327,268)" style="fill: #674E3E;"/><path d="M0 0 C-0.66 0.66 -1.32 1.32 -2 2 C-2 2.33 -2 2.66 -2 3 C-4.31 3 -6.62 3 -9 3 C-5.83583464 -0.30799106 -4.50236011 -1.35070803 0 0 Z " transform="translate(251,170)" style="fill: #7D6455;"/><path d="M0 0 C-0.33 0.99 -0.66 1.98 -1 3 C-2.98 3.33 -4.96 3.66 -7 4 C-7 3.01 -7 2.02 -7 1 C-4.53721199 -0.231394 -2.7204945 -0.07159196 0 0 Z " transform="translate(213,168)" style="fill: #806655;"/><path d="M0 0 C0.33 0.66 0.66 1.32 1 2 C-0.65 3.98 -2.3 5.96 -4 8 C-4.33 7.01 -4.66 6.02 -5 5 C-3.35 3.35 -1.7 1.7 0 0 Z " transform="translate(267,265)" style="fill: #624939;"/><path d="M0 0 C0.33 0 0.66 0 1 0 C1 2.31 1 4.62 1 7 C-0.65 7.33 -2.3 7.66 -4 8 C-2.87548273 5.0280615 -1.77706209 2.66559313 0 0 Z " transform="translate(273,258)" style="fill: #F1D4BE;"/><path d="M0 0 C-1.44253657 3.36591866 -3.33264727 5.51047079 -6 8 C-5.62403791 5.21788056 -5.32681541 3.4120716 -3.5625 1.1875 C-2 0 -2 0 0 0 Z " transform="translate(206,171)" style="fill: #634B3B;"/><path d="M0 0 C0.33 0.66 0.66 1.32 1 2 C1.66 2 2.32 2 3 2 C2.67 3.65 2.34 5.3 2 7 C0.68 7 -0.64 7 -2 7 C-1.34 4.69 -0.68 2.38 0 0 Z " transform="translate(330,257)" style="fill: #755C4C;"/><path d="M0 0 C0.86625 0.3403125 0.86625 0.3403125 1.75 0.6875 C0 2.25 0 2.25 -2.25 3.6875 C-4.5 3.375 -4.5 3.375 -6.25 2.6875 C-2.80384615 -0.38942308 -2.80384615 -0.38942308 0 0 Z " transform="translate(147.25,180.3125)" style="fill: #FEFBF9;"/><path d="M0 0 C2.64 0.33 5.28 0.66 8 1 C8 2.32 8 3.64 8 5 C5.36 3.68 2.72 2.36 0 1 C0 0.67 0 0.34 0 0 Z " transform="translate(300,164)" style="fill: #6F5A4C;"/><path d="M0 0 C1.98 0 3.96 0 6 0 C6 0.66 6 1.32 6 2 C4.02 2.66 2.04 3.32 0 4 C0 2.68 0 1.36 0 0 Z " transform="translate(317,188)" style="fill: #F4D6BE;"/><path d="M0 0 C-3.22515763 1.73662334 -6.51329166 2.8905928 -10 4 C-9.67 3.01 -9.34 2.02 -9 1 C-5.8035914 -0.06546953 -3.34252724 -0.07427838 0 0 Z " transform="translate(152,169)" style="fill: #E9CBB4;"/></svg>